# xmcd CD database file
#
# Track frame offsets:
#	150
#	16030
#	28592
#	40497
#	50220
#	70270
#	85730
#	94522
#	109395
#	124930
#	138485
#	149732
#	166285
#	179670
#	193105
#	206320
#
# Disc length: 2920 seconds
#
# Revision: 2
# Processed by: cddbd v1.5.2PL0 Copyright (c) Steve Scherf et al.
# Submitted via: CDex 1.93
#
DISCID=ed0b6610
DTITLE=Tina Turner - Tina Turner - The Country Side Of
DYEAR=1989
DGENRE=Pop-Folk
TTITLE0=Good Hearted Woman
TTITLE1=Stand By Your Man
TTITLE2=Soul Deep
TTITLE3=Ain't Nobody's Business
TTITLE4=Lovin' Him Was Easier
TTITLE5=We Had It All
TTITLE6=Funky Mule
TTITLE7=It Sho Ain't Me
TTITLE8=If This Is Our Last Time
TTITLE9=It's Crazy Baby
TTITLE10=You're So Fine
TTITLE11=Lay It Down
TTITLE12=Am I A Fool In Love
TTITLE13=Freedom To Stay
TTITLE14=If It's All Right With You
TTITLE15=You Ain't Woman Enough To Take My Man
EXTD=YEAR: 1989
EXTT0=
EXTT1=
EXTT2=
EXTT3=
EXTT4=
EXTT5=
EXTT6=
EXTT7=
EXTT8=
EXTT9=
EXTT10=
EXTT11=
EXTT12=
EXTT13=
EXTT14=
EXTT15=
PLAYORDER=
